<?xml version="1.0" encoding="UTF-8"?>
<svg xmlns="http://www.w3.org/2000/svg" xmlns:xlink="http://www.w3.org/1999/xlink" width="563px" height="563px" viewBox="0 0 563 563" version="1.1">
<defs>
<radialGradient id="radial0" gradientUnits="userSpaceOnUse" cx="0" cy="0" fx="0" fy="0" r="1" gradientTransform="matrix(218.444004,253.631176,-253.631741,873.777965,281.5,281.5)">
<stop offset="0.0497905" style="stop-color:rgb(13.72549%,14.117647%,78.431373%);stop-opacity:1;"/>
<stop offset="1" style="stop-color:rgb(14.509804%,14.901961%,62.745098%);stop-opacity:1;"/>
</radialGradient>
</defs>
<g id="surface1">
<rect x="0" y="0" width="563" height="563" style="fill:url(#radial0);stroke:none;"/>
<path style=" stroke:none;fill-rule:nonzero;fill:rgb(99.607843%,84.313725%,18.039216%);fill-opacity:1;" d="M 315.335938 377.394531 C 312.660156 406.386719 305.34375 417.085938 293.378906 431.441406 C 288.15625 437.707031 303.511719 450.019531 297.601562 450.863281 C 291.691406 451.710938 280.007812 448.050781 269.171875 436.507812 C 258.332031 424.96875 243.554688 397.660156 250.730469 349.242188 C 257.910156 300.824219 279.867188 301.109375 293.800781 305.046875 C 307.734375 308.988281 318.011719 348.398438 315.335938 377.394531 Z M 315.335938 377.394531 "/>
<path style=" stroke:none;fill-rule:nonzero;fill:rgb(2.745098%,0%,0%);fill-opacity:1;" d="M 273.535156 362.472656 C 273.535156 364.652344 272.652344 366.414062 271.5625 366.414062 C 270.472656 366.414062 269.59375 364.652344 269.59375 362.472656 C 269.59375 360.296875 270.472656 358.53125 271.5625 358.53125 C 272.652344 358.53125 273.535156 360.296875 273.535156 362.472656 Z M 273.535156 362.472656 "/>
<path style=" stroke:none;fill-rule:nonzero;fill:rgb(2.745098%,0%,0%);fill-opacity:1;" d="M 297.742188 361.347656 C 297.742188 363.523438 296.859375 365.289062 295.773438 365.289062 C 294.683594 365.289062 293.800781 363.523438 293.800781 361.347656 C 293.800781 359.171875 294.683594 357.40625 295.773438 357.40625 C 296.859375 357.40625 297.742188 359.171875 297.742188 361.347656 Z M 297.742188 361.347656 "/>
<path style=" stroke:none;fill-rule:nonzero;fill:rgb(93.333333%,29.411765%,43.921569%);fill-opacity:1;" d="M 304.21875 374.296875 C 304.21875 379.273438 302.199219 383.304688 299.714844 383.304688 C 297.226562 383.304688 295.210938 379.273438 295.210938 374.296875 C 295.210938 369.320312 297.226562 365.289062 299.714844 365.289062 C 302.199219 365.289062 304.21875 369.320312 304.21875 374.296875 Z M 304.21875 374.296875 "/>
<path style=" stroke:none;fill-rule:nonzero;fill:rgb(93.333333%,29.411765%,43.921569%);fill-opacity:1;" d="M 271 374.296875 C 271 379.273438 268.984375 383.304688 266.496094 383.304688 C 264.007812 383.304688 261.992188 379.273438 261.992188 374.296875 C 261.992188 369.320312 264.007812 365.289062 266.496094 365.289062 C 268.984375 365.289062 271 369.320312 271 374.296875 Z M 271 374.296875 "/>
<path style=" stroke:none;fill-rule:nonzero;fill:rgb(0%,1.960784%,0%);fill-opacity:1;" d="M 283.808594 379.925781 C 277.753906 380.210938 276.347656 367.824219 275.644531 368.105469 C 274.238281 368.105469 276.488281 385.839844 284.089844 384.148438 C 291.691406 382.460938 292.113281 368.105469 290.988281 368.105469 C 289.859375 368.105469 289.859375 379.644531 283.808594 379.925781 Z M 283.808594 379.925781 "/>
<path style=" stroke:none;fill-rule:nonzero;fill:rgb(46.27451%,76.078431%,83.921569%);fill-opacity:1;" d="M 369.824219 347.855469 C 363.488281 375.441406 368.765625 398.527344 370.59375 404.71875 C 369.253906 414.929688 366.230469 412.960938 361.726562 414.367188 C 360.234375 414.835938 369.113281 427.394531 375.941406 423.09375 C 378.476562 430.601562 388.679688 438.65625 398.746094 437.449219 C 413.890625 435.640625 422.175781 416.699219 424.925781 402.261719 C 429.113281 380.261719 428.9375 344.476562 413.316406 326.179688 C 397.691406 307.882812 376.15625 320.269531 369.824219 347.855469 Z M 369.824219 347.855469 "/>
<path style=" stroke:none;fill-rule:nonzero;fill:rgb(0%,1.176471%,2.352941%);fill-opacity:1;" d="M 389.726562 372.144531 C 389.726562 369.046875 388.039062 368.484375 384.378906 369.328125 C 381.847656 369.683594 380.4375 371.015625 380.859375 373.832031 C 381.285156 376.648438 382.832031 375.800781 385.082031 375.519531 C 387.335938 375.238281 389.726562 375.238281 389.726562 372.144531 Z M 389.726562 372.144531 "/>
<path style=" stroke:none;fill-rule:nonzero;fill:rgb(0%,1.176471%,2.352941%);fill-opacity:1;" d="M 413.308594 369.117188 C 413.308594 366.023438 411.621094 365.460938 407.960938 366.304688 C 405.425781 366.660156 404.019531 367.992188 404.441406 370.808594 C 404.863281 373.625 406.414062 372.777344 408.664062 372.496094 C 410.917969 372.214844 413.308594 372.214844 413.308594 369.117188 Z M 413.308594 369.117188 "/>
<path style=" stroke:none;fill-rule:nonzero;fill:rgb(0%,1.176471%,2.352941%);fill-opacity:1;" d="M 407.320312 384.242188 C 407.320312 379.734375 400.566406 379.742188 396.90625 380.585938 C 394.375 380.941406 388 381.859375 388.398438 386.566406 C 388.671875 389.878906 392.683594 387.714844 397.890625 387.0625 C 404.507812 386.234375 407.320312 387.90625 407.320312 384.242188 Z M 407.320312 384.242188 "/>
<path style=" stroke:none;fill-rule:nonzero;fill:rgb(96.862745%,30.980392%,30.980392%);fill-opacity:1;" d="M 183.117188 426.183594 C 173.433594 437.21875 162.472656 434.722656 158.203125 432.097656 C 152.433594 446.460938 142.859375 441.953125 145.394531 439.703125 C 147.929688 437.449219 149.195312 432.101562 149.335938 427.316406 C 145.675781 422.539062 143.707031 417.183594 140.1875 405.632812 C 132.65625 380.925781 132.164062 349.898438 143.847656 325.6875 C 155.527344 301.480469 183.117188 303.730469 193.53125 338.917969 C 203.945312 374.105469 195.21875 412.390625 183.117188 426.183594 Z M 183.117188 426.183594 "/>
<path style=" stroke:none;fill-rule:nonzero;fill:rgb(0%,0.392157%,1.568627%);fill-opacity:1;" d="M 166.445312 377.394531 C 160.738281 377.167969 158.503906 390.109375 157.792969 389.628906 C 156.488281 389.390625 159.570312 374.035156 166.328125 373.554688 C 173.082031 373.074219 176.402344 390.109375 174.859375 389.867188 C 173.320312 389.628906 172.492188 377.632812 166.445312 377.394531 Z M 166.445312 377.394531 "/>
<path style=" stroke:none;fill-rule:nonzero;fill:rgb(2.745098%,0%,0%);fill-opacity:1;" d="M 161.019531 370.445312 C 160.3125 371.855469 158.0625 369.882812 155.527344 366.789062 C 154.542969 365.566406 152.742188 362.789062 153.417969 361.4375 C 154.261719 359.75 156.515625 361.722656 157.921875 363.691406 C 159.328125 365.660156 161.722656 369.039062 161.019531 370.445312 Z M 161.019531 370.445312 "/>
<path style=" stroke:none;fill-rule:nonzero;fill:rgb(2.745098%,0%,0%);fill-opacity:1;" d="M 172.269531 370.246094 C 172.972656 371.652344 175.222656 369.683594 177.757812 366.585938 C 178.742188 365.367188 180.164062 363.433594 179.738281 361.722656 C 179.457031 360.59375 176.921875 362.285156 175.515625 364.253906 C 174.109375 366.226562 171.566406 368.839844 172.269531 370.246094 Z M 172.269531 370.246094 "/>
<path style=" stroke:none;fill-rule:nonzero;fill:rgb(2.745098%,0%,0%);fill-opacity:1;" d="M 158.90625 370.730469 C 158.90625 373.214844 157.898438 375.234375 156.65625 375.234375 C 155.410156 375.234375 154.402344 373.214844 154.402344 370.730469 C 154.402344 368.242188 155.410156 366.226562 156.65625 366.226562 C 157.898438 366.226562 158.90625 368.242188 158.90625 370.730469 Z M 158.90625 370.730469 "/>
<path style=" stroke:none;fill-rule:nonzero;fill:rgb(2.745098%,0%,0%);fill-opacity:1;" d="M 174.375 370.523438 C 174.375 373.011719 175.382812 375.027344 176.628906 375.027344 C 177.871094 375.027344 178.878906 373.011719 178.878906 370.523438 C 178.878906 368.035156 177.871094 366.019531 176.628906 366.019531 C 175.382812 366.019531 174.375 368.035156 174.375 370.523438 Z M 174.375 370.523438 "/>
<path style=" stroke:none;fill-rule:nonzero;fill:rgb(100%,100%,100%);fill-opacity:1;" d="M 224.199219 500.136719 C 224.179688 499.71875 224.085938 499.390625 223.917969 499.160156 C 223.753906 498.925781 223.539062 498.808594 223.273438 498.808594 C 223.089844 498.808594 222.929688 498.863281 222.796875 498.976562 C 222.664062 499.089844 222.5625 499.242188 222.492188 499.433594 C 222.421875 499.625 222.386719 499.84375 222.382812 500.089844 C 222.382812 500.292969 222.40625 500.472656 222.453125 500.621094 C 222.503906 500.773438 222.566406 500.902344 222.648438 501.003906 C 222.730469 501.109375 222.820312 501.195312 222.917969 501.265625 C 223.019531 501.335938 223.117188 501.394531 223.21875 501.441406 L 223.679688 501.671875 C 223.867188 501.757812 224.042969 501.875 224.214844 502.023438 C 224.386719 502.171875 224.542969 502.355469 224.679688 502.578125 C 224.816406 502.804688 224.925781 503.074219 225.003906 503.390625 C 225.085938 503.707031 225.125 504.078125 225.125 504.503906 C 225.125 505.078125 225.050781 505.585938 224.902344 506.023438 C 224.757812 506.460938 224.542969 506.800781 224.265625 507.046875 C 223.988281 507.289062 223.652344 507.410156 223.261719 507.410156 C 222.878906 507.410156 222.546875 507.292969 222.265625 507.058594 C 221.984375 506.820312 221.765625 506.472656 221.609375 506.019531 C 221.449219 505.566406 221.367188 505.011719 221.351562 504.359375 L 222.230469 504.359375 C 222.242188 504.703125 222.292969 504.988281 222.386719 505.214844 C 222.480469 505.441406 222.601562 505.609375 222.75 505.722656 C 222.898438 505.835938 223.066406 505.890625 223.253906 505.890625 C 223.445312 505.890625 223.617188 505.832031 223.761719 505.71875 C 223.910156 505.597656 224.023438 505.4375 224.109375 505.226562 C 224.191406 505.015625 224.234375 504.769531 224.234375 504.488281 C 224.234375 504.234375 224.195312 504.023438 224.121094 503.855469 C 224.046875 503.6875 223.945312 503.546875 223.8125 503.433594 C 223.679688 503.320312 223.527344 503.214844 223.351562 503.125 L 222.792969 502.839844 C 222.386719 502.632812 222.066406 502.316406 221.832031 501.894531 C 221.601562 501.46875 221.484375 500.902344 221.484375 500.199219 C 221.484375 499.621094 221.5625 499.113281 221.71875 498.679688 C 221.875 498.242188 222.089844 497.90625 222.363281 497.667969 C 222.636719 497.421875 222.941406 497.300781 223.285156 497.300781 C 223.636719 497.300781 223.941406 497.421875 224.203125 497.667969 C 224.46875 497.90625 224.675781 498.242188 224.824219 498.667969 C 224.976562 499.09375 225.054688 499.585938 225.058594 500.136719 Z M 228.621094 507.261719 L 228.621094 497.4375 L 231.816406 497.4375 L 231.816406 498.929688 L 229.511719 498.929688 L 229.511719 501.597656 L 231.652344 501.597656 L 231.652344 503.089844 L 229.511719 503.089844 L 229.511719 505.769531 L 231.835938 505.769531 L 231.835938 507.261719 Z M 239.464844 497.4375 L 239.464844 507.261719 L 238.671875 507.261719 L 236.359375 500.570312 L 236.316406 500.570312 L 236.316406 507.261719 L 235.425781 507.261719 L 235.425781 497.4375 L 236.222656 497.4375 L 238.535156 504.132812 L 238.578125 504.132812 L 238.578125 497.4375 Z M 242.921875 498.929688 L 242.921875 497.4375 L 246.839844 497.4375 L 246.839844 498.929688 L 245.324219 498.929688 L 245.324219 507.261719 L 244.4375 507.261719 L 244.4375 498.929688 Z M 251.1875 497.4375 L 251.1875 507.261719 L 250.300781 507.261719 L 250.300781 497.4375 Z M 254.855469 497.4375 L 255.945312 497.4375 L 257.402344 504.558594 L 257.460938 504.558594 L 258.917969 497.4375 L 260.007812 497.4375 L 260.007812 507.261719 L 259.15625 507.261719 L 259.15625 500.511719 L 259.109375 500.511719 L 257.75 507.234375 L 257.113281 507.234375 L 255.753906 500.496094 L 255.710938 500.496094 L 255.710938 507.261719 L 254.855469 507.261719 Z M 263.679688 507.261719 L 263.679688 497.4375 L 266.875 497.4375 L 266.875 498.929688 L 264.570312 498.929688 L 264.570312 501.597656 L 266.710938 501.597656 L 266.710938 503.089844 L 264.570312 503.089844 L 264.570312 505.769531 L 266.894531 505.769531 L 266.894531 507.261719 Z M 274.523438 497.4375 L 274.523438 507.261719 L 273.734375 507.261719 L 271.417969 500.570312 L 271.375 500.570312 L 271.375 507.261719 L 270.488281 507.261719 L 270.488281 497.4375 L 271.285156 497.4375 L 273.597656 504.132812 L 273.640625 504.132812 L 273.640625 497.4375 Z M 277.980469 498.929688 L 277.980469 497.4375 L 281.898438 497.4375 L 281.898438 498.929688 L 280.382812 498.929688 L 280.382812 507.261719 L 279.5 507.261719 L 279.5 498.929688 Z M 290.367188 507.261719 L 289.417969 507.261719 L 291.148438 497.4375 L 292.246094 497.4375 L 293.980469 507.261719 L 293.03125 507.261719 L 291.714844 499.453125 L 291.679688 499.453125 Z M 290.398438 503.410156 L 292.992188 503.410156 L 292.992188 504.839844 L 290.398438 504.839844 Z M 301.367188 497.4375 L 301.367188 507.261719 L 300.574219 507.261719 L 298.261719 500.570312 L 298.21875 500.570312 L 298.21875 507.261719 L 297.328125 507.261719 L 297.328125 497.4375 L 298.125 497.4375 L 300.4375 504.132812 L 300.480469 504.132812 L 300.480469 497.4375 Z M 305.667969 507.261719 L 304.71875 507.261719 L 306.449219 497.4375 L 307.546875 497.4375 L 309.28125 507.261719 L 308.328125 507.261719 L 307.019531 499.453125 L 306.980469 499.453125 Z M 305.699219 503.410156 L 308.292969 503.410156 L 308.292969 504.839844 L 305.699219 504.839844 Z M 312.632812 507.261719 L 312.632812 497.4375 L 313.519531 497.4375 L 313.519531 505.769531 L 315.683594 505.769531 L 315.683594 507.261719 Z M 318.328125 497.4375 L 319.332031 497.4375 L 320.535156 501.785156 L 320.582031 501.785156 L 321.785156 497.4375 L 322.789062 497.4375 L 321.003906 503.597656 L 321.003906 507.261719 L 320.117188 507.261719 L 320.117188 503.597656 Z M 328.792969 500.136719 C 328.773438 499.71875 328.675781 499.390625 328.511719 499.160156 C 328.34375 498.925781 328.128906 498.808594 327.867188 498.808594 C 327.683594 498.808594 327.523438 498.863281 327.390625 498.976562 C 327.257812 499.089844 327.15625 499.242188 327.085938 499.433594 C 327.015625 499.625 326.980469 499.84375 326.976562 500.089844 C 326.976562 500.292969 327 500.472656 327.046875 500.621094 C 327.09375 500.773438 327.160156 500.902344 327.242188 501.003906 C 327.324219 501.109375 327.414062 501.195312 327.511719 501.265625 C 327.613281 501.335938 327.710938 501.394531 327.8125 501.441406 L 328.273438 501.671875 C 328.460938 501.757812 328.636719 501.875 328.808594 502.023438 C 328.980469 502.171875 329.136719 502.355469 329.269531 502.578125 C 329.410156 502.804688 329.519531 503.074219 329.597656 503.390625 C 329.679688 503.707031 329.71875 504.078125 329.71875 504.503906 C 329.71875 505.078125 329.644531 505.585938 329.496094 506.023438 C 329.347656 506.460938 329.136719 506.800781 328.859375 507.046875 C 328.582031 507.289062 328.246094 507.410156 327.851562 507.410156 C 327.472656 507.410156 327.140625 507.292969 326.859375 507.058594 C 326.578125 506.820312 326.359375 506.472656 326.199219 506.019531 C 326.042969 505.566406 325.957031 505.011719 325.945312 504.359375 L 326.820312 504.359375 C 326.835938 504.703125 326.886719 504.988281 326.980469 505.214844 C 327.070312 505.441406 327.191406 505.609375 327.34375 505.722656 C 327.492188 505.835938 327.660156 505.890625 327.847656 505.890625 C 328.039062 505.890625 328.210938 505.832031 328.355469 505.71875 C 328.503906 505.597656 328.617188 505.4375 328.699219 505.226562 C 328.785156 505.015625 328.824219 504.769531 328.828125 504.488281 C 328.824219 504.234375 328.789062 504.023438 328.714844 503.855469 C 328.640625 503.6875 328.539062 503.546875 328.40625 503.433594 C 328.273438 503.320312 328.121094 503.214844 327.945312 503.125 L 327.382812 502.839844 C 326.980469 502.632812 326.660156 502.316406 326.425781 501.894531 C 326.191406 501.46875 326.074219 500.902344 326.074219 500.199219 C 326.074219 499.621094 326.15625 499.113281 326.308594 498.679688 C 326.46875 498.242188 326.683594 497.90625 326.957031 497.667969 C 327.226562 497.421875 327.535156 497.300781 327.878906 497.300781 C 328.230469 497.300781 328.53125 497.421875 328.792969 497.667969 C 329.058594 497.90625 329.269531 498.242188 329.417969 498.667969 C 329.570312 499.09375 329.644531 499.585938 329.652344 500.136719 Z M 334.105469 497.4375 L 334.105469 507.261719 L 333.214844 507.261719 L 333.214844 497.4375 Z M 340.441406 500.136719 C 340.417969 499.71875 340.320312 499.390625 340.15625 499.160156 C 339.992188 498.925781 339.777344 498.808594 339.515625 498.808594 C 339.328125 498.808594 339.167969 498.863281 339.035156 498.976562 C 338.902344 499.089844 338.800781 499.242188 338.730469 499.433594 C 338.660156 499.625 338.625 499.84375 338.625 500.089844 C 338.625 500.292969 338.648438 500.472656 338.691406 500.621094 C 338.738281 500.773438 338.804688 500.902344 338.886719 501.003906 C 338.96875 501.109375 339.058594 501.195312 339.160156 501.265625 C 339.257812 501.335938 339.355469 501.394531 339.457031 501.441406 L 339.917969 501.671875 C 340.105469 501.757812 340.28125 501.875 340.453125 502.023438 C 340.625 502.171875 340.78125 502.355469 340.917969 502.578125 C 341.054688 502.804688 341.164062 503.074219 341.242188 503.390625 C 341.324219 503.707031 341.363281 504.078125 341.363281 504.503906 C 341.363281 505.078125 341.289062 505.585938 341.140625 506.023438 C 340.996094 506.460938 340.785156 506.800781 340.503906 507.046875 C 340.226562 507.289062 339.890625 507.410156 339.5 507.410156 C 339.117188 507.410156 338.785156 507.292969 338.503906 507.058594 C 338.226562 506.820312 338.003906 506.472656 337.84375 506.019531 C 337.691406 505.566406 337.605469 505.011719 337.589844 504.359375 L 338.46875 504.359375 C 338.480469 504.703125 338.53125 504.988281 338.625 505.214844 C 338.71875 505.441406 338.839844 505.609375 338.988281 505.722656 C 339.140625 505.835938 339.304688 505.890625 339.492188 505.890625 C 339.6875 505.890625 339.855469 505.832031 340 505.71875 C 340.148438 505.597656 340.261719 505.4375 340.347656 505.226562 C 340.429688 505.015625 340.472656 504.769531 340.472656 504.488281 C 340.472656 504.234375 340.433594 504.023438 340.363281 503.855469 C 340.289062 503.6875 340.183594 503.546875 340.050781 503.433594 C 339.917969 503.320312 339.769531 503.214844 339.589844 503.125 L 339.03125 502.839844 C 338.628906 502.632812 338.308594 502.316406 338.074219 501.894531 C 337.839844 501.46875 337.722656 500.902344 337.722656 500.199219 C 337.722656 499.621094 337.800781 499.113281 337.957031 498.679688 C 338.117188 498.242188 338.328125 497.90625 338.601562 497.667969 C 338.875 497.421875 339.183594 497.300781 339.527344 497.300781 C 339.875 497.300781 340.179688 497.421875 340.441406 497.667969 C 340.707031 497.90625 340.914062 498.242188 341.0625 498.667969 C 341.214844 499.09375 341.289062 499.585938 341.296875 500.136719 Z M 340.441406 500.136719 "/>
<path style=" stroke:none;fill-rule:nonzero;fill:rgb(100%,100%,100%);fill-opacity:1;" d="M 206.058594 104.148438 L 233.261719 104.148438 L 233.261719 110.917969 L 206.058594 110.917969 Z M 206.058594 104.148438 "/>
<path style=" stroke:none;fill-rule:nonzero;fill:rgb(99.607843%,84.313725%,18.039216%);fill-opacity:1;" d="M 236.90625 104.148438 L 264.113281 104.148438 L 264.113281 110.917969 L 236.90625 110.917969 Z M 236.90625 104.148438 "/>
<path style=" stroke:none;fill-rule:nonzero;fill:rgb(96.862745%,30.980392%,30.980392%);fill-opacity:1;" d="M 267.757812 104.148438 L 294.960938 104.148438 L 294.960938 110.917969 L 267.757812 110.917969 Z M 267.757812 104.148438 "/>
<path style=" stroke:none;fill-rule:nonzero;fill:rgb(100%,100%,100%);fill-opacity:1;" d="M 298.605469 104.148438 L 325.8125 104.148438 L 325.8125 110.917969 L 298.605469 110.917969 Z M 298.605469 104.148438 "/>
<path style=" stroke:none;fill-rule:nonzero;fill:rgb(46.27451%,76.078431%,83.921569%);fill-opacity:1;" d="M 329.457031 104.148438 L 356.660156 104.148438 L 356.660156 110.917969 L 329.457031 110.917969 Z M 329.457031 104.148438 "/>
<path style=" stroke:none;fill-rule:nonzero;fill:rgb(96.862745%,30.980392%,30.980392%);fill-opacity:1;" d="M 206.058594 127.800781 L 233.261719 127.800781 L 233.261719 134.570312 L 206.058594 134.570312 Z M 206.058594 127.800781 "/>
<path style=" stroke:none;fill-rule:nonzero;fill:rgb(100%,100%,100%);fill-opacity:1;" d="M 236.90625 127.800781 L 264.113281 127.800781 L 264.113281 134.570312 L 236.90625 134.570312 Z M 236.90625 127.800781 "/>
<path style=" stroke:none;fill-rule:nonzero;fill:rgb(99.607843%,84.313725%,18.039216%);fill-opacity:1;" d="M 267.757812 127.800781 L 294.960938 127.800781 L 294.960938 134.570312 L 267.757812 134.570312 Z M 267.757812 127.800781 "/>
<path style=" stroke:none;fill-rule:nonzero;fill:rgb(100%,100%,100%);fill-opacity:1;" d="M 298.605469 127.800781 L 325.8125 127.800781 L 325.8125 134.570312 L 298.605469 134.570312 Z M 298.605469 127.800781 "/>
<path style=" stroke:none;fill-rule:nonzero;fill:rgb(100%,100%,100%);fill-opacity:1;" d="M 329.457031 127.800781 L 356.660156 127.800781 L 356.660156 134.570312 L 329.457031 134.570312 Z M 329.457031 127.800781 "/>
<path style=" stroke:none;fill-rule:nonzero;fill:rgb(99.607843%,84.313725%,18.039216%);fill-opacity:1;" d="M 206.058594 151.453125 L 233.261719 151.453125 L 233.261719 158.222656 L 206.058594 158.222656 Z M 206.058594 151.453125 "/>
<path style=" stroke:none;fill-rule:nonzero;fill:rgb(46.27451%,76.078431%,83.921569%);fill-opacity:1;" d="M 236.90625 151.453125 L 264.113281 151.453125 L 264.113281 158.222656 L 236.90625 158.222656 Z M 236.90625 151.453125 "/>
<path style=" stroke:none;fill-rule:nonzero;fill:rgb(100%,100%,100%);fill-opacity:1;" d="M 267.757812 151.453125 L 294.960938 151.453125 L 294.960938 158.222656 L 267.757812 158.222656 Z M 267.757812 151.453125 "/>
<path style=" stroke:none;fill-rule:nonzero;fill:rgb(96.862745%,30.980392%,30.980392%);fill-opacity:1;" d="M 298.605469 151.453125 L 325.8125 151.453125 L 325.8125 158.222656 L 298.605469 158.222656 Z M 298.605469 151.453125 "/>
<path style=" stroke:none;fill-rule:nonzero;fill:rgb(100%,100%,100%);fill-opacity:1;" d="M 329.457031 151.453125 L 356.660156 151.453125 L 356.660156 158.222656 L 329.457031 158.222656 Z M 329.457031 151.453125 "/>
<path style="fill:none;stroke-width:6;stroke-linecap:butt;stroke-linejoin:miter;stroke:rgb(100%,100%,100%);stroke-opacity:1;stroke-miterlimit:10;" d="M 1419.002553 484.610901 L 1419.002553 426.308559 L 991.993228 429.375278 M 564.99778 490.001943 L 564.99778 432.435058 L 991.993228 429.375278 M 991.993228 429.375278 L 991.993228 354.996947 M 991.993228 429.375278 L 991.993228 484.610901 " transform="matrix(0.2815,0,0,0.563,0,0)"/>
<path style="fill:none;stroke-width:1;stroke-linecap:butt;stroke-linejoin:miter;stroke:rgb(100%,100%,100%);stroke-opacity:1;stroke-miterlimit:4;" d="M 680.506217 118.498834 L 1317.49556 118.498834 L 1317.49556 354.497391 L 680.506217 354.497391 Z M 680.506217 118.498834 " transform="matrix(0.2815,0,0,0.563,0,0)"/>
</g>
</svg>
